<svg width="15" height="20" viewBox="0 0 15 20" xmlns="http://www.w3.org/2000/svg"><title>5AB78D62-65FE-453D-81E3-63895E0704F9</title><g fill="#7E7E7E" fill-rule="evenodd"><path d="M7.517 3.031c-2.435 0-4.416 1.955-4.416 4.357s1.981 4.357 4.416 4.357c2.435 0 4.416-1.955 4.416-4.357s-1.98-4.357-4.416-4.357zm0 7.542c-1.78 0-3.228-1.429-3.228-3.185s1.448-3.185 3.228-3.185c1.78 0 3.229 1.429 3.229 3.185s-1.449 3.185-3.229 3.185z"/><path d="M7.517 0C3.388 0 .03 3.314.03 7.388c0 2.35 1.997 5.85 3.187 7.727.784 1.235 1.625 2.41 2.37 3.31 1.196 1.443 1.624 1.564 1.931 1.564.312 0 .716-.121 1.908-1.565.747-.905 1.59-2.08 2.372-3.308 1.198-1.882 3.209-5.389 3.209-7.728C15.006 3.314 11.646 0 7.517 0zm3.456 14.203c-1.536 2.46-2.946 4.122-3.463 4.546-.52-.411-1.907-2.033-3.464-4.538-1.798-2.892-2.83-5.379-2.83-6.823 0-3.428 2.827-6.216 6.301-6.216 3.475 0 6.301 2.788 6.301 6.216 0 1.436-1.037 3.92-2.845 6.815z"/></g></svg>